<svg width="50" height="50" viewBox="0 0 50 50" fill="none" xmlns="http://www.w3.org/2000/svg">
<path fill-rule="evenodd" clip-rule="evenodd" d="M22.8888 1.02716C21.1083 1.20783 18.9643 1.63761 17.4755 2.11228C15.5632 2.72183 11.8943 4.47316 11.0755 5.16739C10.7503 5.44294 10.0503 6.01539 9.5199 6.43916C8.06679 7.60072 6.41323 9.30228 5.41057 10.6685C4.31257 12.1643 2.44434 15.6365 2.44434 16.1814C2.44434 16.4003 2.35457 16.6747 2.24501 16.7907C2.13545 16.9069 1.83545 17.8243 1.57834 18.8294C1.1799 20.3872 1.11145 21.3047 1.11434 25.0516C1.11857 30.2938 1.4079 31.7672 3.12523 35.2909C4.55679 38.2278 5.58545 39.6978 7.72012 41.8572C10.4306 44.5994 13.4801 46.5278 16.9999 47.7256C20.3539 48.8669 21.189 48.9981 24.9999 48.9825C27.9539 48.9705 28.8561 48.8847 30.3332 48.4765C33.3743 47.6356 34.273 47.2978 36.2221 46.2618C42.8108 42.7601 47.2621 36.7576 48.6921 29.4463C49.0921 27.4009 49.0935 21.8541 48.6941 20.1129C47.7046 15.7969 45.3355 11.4814 42.1592 8.20916C38.7137 4.65961 34.2339 2.26983 29.3332 1.36716C27.9523 1.11272 24.0655 0.907609 22.8888 1.02716ZM24.2777 1.71494C23.6246 1.83983 23.6463 2.04672 24.4266 3.12361C25.0166 3.93805 25.0888 3.97761 25.2217 3.55894C25.3019 3.30583 25.611 2.83628 25.9083 2.51539C26.2055 2.19472 26.4228 1.91116 26.391 1.88539C26.2288 1.75405 24.7128 1.63161 24.2777 1.71494ZM27.0757 2.32783C26.2681 2.78383 25.511 4.07761 25.511 5.00183C25.511 6.01628 26.2768 7.2105 27.1686 7.58672C28.5297 8.16116 30.6668 7.87561 32.8888 6.82228C33.6479 6.46272 34.3223 6.34694 35.6879 6.34183C37.6921 6.3345 38.0919 6.52583 38.597 7.73428C38.8501 8.33939 38.8532 8.57094 38.6152 9.06761C38.2755 9.7765 37.4026 9.88472 37.0241 9.26472C36.8201 8.93028 36.8866 8.77294 37.4119 8.34894L38.0461 7.83716L37.529 7.47516C37.2448 7.27583 36.8879 7.11294 36.7361 7.11294C36.2886 7.11294 35.993 7.90916 36.1448 8.70583C36.2226 9.11316 36.2148 9.38094 36.1277 9.30139C36.0406 9.22161 35.9003 8.67161 35.8163 8.07916C35.6828 7.13872 35.5915 6.99339 35.0979 6.93583C34.753 6.89539 34.3788 7.03916 34.1392 7.30405C33.7612 7.72161 33.7688 7.7745 34.3335 8.66894C35.1312 9.9325 34.931 9.98339 33.9201 8.77405C33.0259 7.70428 32.533 7.56561 31.6588 8.1385C30.949 8.60339 30.9672 8.8065 31.7321 8.95939C32.0737 9.02761 32.8488 9.44228 33.4543 9.88072C35.2323 11.1676 36.1123 11.5178 37.111 11.3352C38.2999 11.1178 39.0879 10.5561 39.463 9.65828C39.8706 8.6825 39.8601 8.13916 39.4168 7.28183C38.9295 6.33961 38.3177 5.86494 37.0239 5.42539C35.7559 4.99494 34.6575 5.16539 31.707 6.25139C29.765 6.96605 27.941 7.09161 27.1859 6.5625C26.6041 6.15516 26.357 5.24694 26.669 4.66383C26.9112 4.21161 27.7559 4.04983 27.8055 4.44628C27.8208 4.5685 27.8519 4.79361 27.8746 4.94628C27.8975 5.09916 27.8163 5.35672 27.6946 5.51872C27.221 6.1485 28.6063 6.47494 29.2063 5.87494C29.6728 5.40828 29.6463 5.04183 29.111 4.55739C28.6139 4.10761 28.519 3.69494 28.9443 3.83228C29.0972 3.88161 29.4281 4.31494 29.6799 4.79539C30.1997 5.78672 31.0281 6.05294 31.6521 5.42894C32.0037 5.07761 31.9881 5.01361 31.4023 4.39716C31.0588 4.03561 30.4935 3.59139 30.1459 3.41005C29.7983 3.22872 29.5659 3.0285 29.6292 2.96516C29.8701 2.72428 30.7679 3.19716 31.6983 4.05494C32.5215 4.81361 32.767 4.92628 33.3457 4.8105C33.7197 4.73561 34.1741 4.52605 34.3555 4.34472C34.647 4.05316 34.6132 3.99961 34.0648 3.88339C33.7235 3.81116 32.7141 3.38916 31.8215 2.94583C29.9426 2.0125 28.067 1.76828 27.0757 2.32783ZM17.9999 3.00183C16.961 3.42539 15.9861 3.77383 15.8332 3.77583C15.4237 3.78139 15.495 4.16361 15.9999 4.6685C16.661 5.32961 17.1621 5.21916 18.5201 4.11294C20.0279 2.88472 20.3777 2.8185 19.2483 3.97516C18.1823 5.0665 18.1877 5.85516 19.2617 5.95916C19.9088 6.02183 20.005 5.94294 20.4157 5.01472C20.6621 4.45761 20.9777 4.00183 21.117 4.00183C21.2563 4.00183 21.3337 4.07672 21.289 4.1685C21.2443 4.26028 21.073 4.60383 20.9079 4.93205C20.5223 5.70005 20.7297 6.22405 21.4192 6.22405C22.5652 6.22405 23.0995 5.59939 22.3241 5.16561C21.827 4.88739 22.161 4.18383 22.7503 4.26783C23.4352 4.36561 23.5352 5.79983 22.9015 6.43361C22.1077 7.22739 20.095 7.06983 17.3875 6.00183C14.6681 4.92916 13.3943 4.84783 11.8259 5.64694C10.1219 6.51494 9.60545 7.88116 10.371 9.4945C10.8701 10.5461 11.8523 11.1112 13.1835 11.1121C14.0815 11.1127 14.6357 10.8996 16.5872 9.8025C18.8906 8.50783 18.9123 8.48805 18.4097 8.13583C17.5681 7.5465 17.0246 7.70094 16.1166 8.78716C15.2119 9.86983 14.7717 9.99139 15.5097 8.95516C16.2739 7.88183 16.1415 6.89072 15.2341 6.89072C14.7266 6.89072 14.2221 7.64672 14.2221 8.40739C14.2221 8.8545 13.6219 9.77961 13.3319 9.77961C13.2228 9.77961 13.3446 9.38428 13.6023 8.90094C13.9903 8.17405 14.0221 7.96316 13.7861 7.67872C13.4199 7.23739 12.5803 7.23694 12.2143 7.67783C11.9988 7.93761 11.9923 8.08317 12.187 8.27783C12.5532 8.64405 12.5055 9.32561 12.1028 9.48028C11.6523 9.65294 10.8886 8.94539 10.8897 8.35628C10.891 7.53072 11.6935 6.5085 12.5661 6.2205C13.6886 5.85005 14.8106 6.05161 17.5555 7.11672C20.3339 8.19472 21.7686 8.3185 22.9592 7.5825C23.3841 7.32005 23.8921 6.8605 24.0881 6.56139C24.9199 5.29161 24.2215 3.14628 22.7799 2.54405C21.5141 2.01516 20.0837 2.15205 17.9999 3.00183ZM24.4443 7.21094C24.4443 7.38717 24.5241 7.5805 24.6217 7.64072C24.9059 7.8165 25.405 7.40894 25.2375 7.13783C25.017 6.78094 24.4443 6.83383 24.4443 7.21094ZM8.71546 7.86094C8.12434 8.24539 7.33323 9.29472 7.33323 9.69383C7.33323 9.74094 7.88657 9.77961 8.56301 9.77961H9.79301L9.64412 8.61294C9.56234 7.97116 9.4839 7.43294 9.4699 7.4165C9.4559 7.40005 9.11634 7.60005 8.71546 7.86094ZM40.1888 8.88228C40.1288 9.74983 40.1788 9.98094 40.407 9.89339C40.5697 9.83072 41.0901 9.77961 41.5635 9.77961H42.4239L41.9341 9.02028C41.6648 8.60272 41.2943 8.20272 41.111 8.13117C40.9277 8.05983 40.6626 7.9465 40.5221 7.87939C40.3517 7.79805 40.2406 8.13205 40.1888 8.88228ZM23.111 8.49405C18.9137 9.19028 16.0435 10.5112 13.4279 12.9509C9.93723 16.2067 8.12701 20.3172 8.16968 24.8907C8.22968 31.3416 12.0188 37.4136 17.5555 39.9318C20.7483 41.384 23.1057 41.7896 26.7979 41.5221C28.457 41.4018 29.2317 41.2069 31.1312 40.4314C32.4035 39.9118 33.4777 39.4027 33.5183 39.2998C33.5592 39.1972 33.711 39.1129 33.8561 39.1129C34.1212 39.1129 35.8386 37.7167 36.883 36.6518C38.943 34.5516 40.3979 31.9174 41.1183 28.9834C41.6641 26.7603 41.7026 23.1449 41.2006 21.2387C40.751 19.5316 39.293 16.4163 38.3926 15.2387C35.1148 10.9525 31.1488 8.8985 25.111 8.36072C24.6832 8.32272 23.7832 8.38272 23.111 8.49405ZM6.07301 11.2281L5.11101 12.2318V13.9992C5.11101 15.3887 5.22479 16.0172 5.64301 16.9396C6.91745 19.7496 7.16701 21.2638 6.55146 22.4541C6.00968 23.5016 4.17834 23.6978 4.0399 22.7232C3.95479 22.1238 4.54679 21.8201 5.1119 22.1732C5.62479 22.4934 5.9999 22.1176 5.9999 21.2838C5.9999 20.4436 5.5079 20.2992 4.55723 20.8603C4.12857 21.1132 3.77768 21.2389 3.77768 21.1398C3.77768 20.8409 4.51345 20.2954 5.22212 20.0689C6.2979 19.7252 6.18701 18.2241 5.08568 18.2241C4.67723 18.2241 3.33323 19.4425 3.33323 19.8125C3.33323 19.9167 3.23323 20.0018 3.11101 20.0018C2.70434 20.0018 2.88012 19.6083 3.81479 18.4258C4.80834 17.1689 4.99101 16.2945 4.38612 15.6896C3.97412 15.2776 3.77768 15.2392 3.77768 15.5705C3.77768 15.7001 3.35279 16.6749 2.83323 17.7372C2.01701 19.4063 1.88879 19.8647 1.88879 21.1129C1.88879 22.7554 2.3019 23.5334 3.4779 24.1056C5.67057 25.1723 7.82057 23.6507 7.85523 21.0076C7.86968 19.9021 7.43479 17.8914 7.08123 17.4292C6.98034 17.2974 6.69168 16.5214 6.43923 15.7045C5.75612 13.4923 6.20568 11.6721 7.57545 11.1047C8.17345 10.8569 8.37301 10.8621 8.86368 11.1374C9.54146 11.5178 9.60946 11.9634 9.04234 12.3109C8.72434 12.5061 8.57968 12.4756 8.34834 12.1647C7.76501 11.3801 6.98234 12.2687 7.35923 13.2878C7.49834 13.6636 7.7199 13.7796 8.29879 13.7796C8.71568 13.7796 9.18101 13.6296 9.33323 13.4463C9.48545 13.2629 9.7199 13.1129 9.85434 13.1129C10.5166 13.1129 9.07657 14.0216 8.13545 14.1974C6.63723 14.4774 6.2699 15.0649 7.20879 15.6801C7.70812 16.0074 7.81501 16.0049 8.56323 15.6498C9.0099 15.4378 9.59101 14.9316 9.85434 14.5247C10.1177 14.1181 10.4139 13.7838 10.5126 13.7823C10.8772 13.7767 9.85857 15.1956 8.94434 15.9663C7.95768 16.7983 7.7779 17.3941 8.24857 18.2734C8.48679 18.7185 8.51234 18.7063 8.86412 17.9809C9.06612 17.5647 9.65412 16.5836 10.171 15.8007C10.9543 14.6147 11.111 14.1961 11.111 13.2896C11.111 11.2434 10.1403 10.2241 8.1919 10.2241C7.1099 10.2241 6.97234 10.2892 6.07301 11.2281ZM40.4383 10.6027C39.7219 11.0965 39.3983 11.5036 38.9961 12.4178C38.4783 13.5952 38.5899 14.1065 39.7777 16.0018C40.3888 16.9769 40.8888 17.8636 40.8888 17.9723C40.8888 18.0807 41.0497 18.3032 41.2461 18.4663C41.5499 18.7183 41.6501 18.6992 41.9128 18.3398C42.4668 17.5821 42.293 16.9452 41.3888 16.4194C40.5757 15.9467 39.3397 14.6643 39.7052 14.6727C39.8061 14.6752 40.2877 15.0252 40.7752 15.4505C42.0672 16.5778 43.111 16.4201 43.111 15.0978C43.111 14.5732 43.0077 14.4909 42.2137 14.3845C41.3103 14.2634 40.0783 13.6272 40.3059 13.3994C40.3735 13.3321 40.773 13.4405 41.1939 13.6403C42.0557 14.0492 42.5855 13.9407 42.7841 13.3147C43.0817 12.3776 42.437 11.6536 41.8383 12.2523C41.5243 12.5663 40.4443 12.3174 40.4443 11.9309C40.4443 11.1781 41.7488 10.8441 42.7001 11.3532C43.2615 11.6536 43.9886 13.2196 43.995 14.1425C43.9977 14.5254 43.5468 15.9587 42.993 17.3281C41.7046 20.5136 41.5815 21.3667 42.2146 22.7141C42.8239 24.0101 43.8341 24.5598 45.2497 24.3658C45.7792 24.2932 46.415 24.1074 46.6626 23.9527C47.1917 23.6223 48.001 22.0027 47.9972 21.2821C47.993 20.4552 47.4075 18.5078 46.929 17.7296C46.683 17.3294 46.4121 16.6269 46.3272 16.1685C46.1463 15.1938 45.9252 15.1254 45.4246 15.8898C45.0559 16.4525 45.1297 17.8865 45.5355 18.0412C45.7721 18.1314 46.8888 19.7752 46.8888 20.0334C46.8888 20.1389 46.5228 19.8203 46.0755 19.3249C45.0661 18.2078 44.3686 18.1905 44.2637 19.2796C44.2023 19.9152 44.2588 20.0018 44.7332 20.0018C45.0299 20.0018 45.5377 20.2669 45.8619 20.5912C46.5968 21.3261 46.4512 21.5476 45.6483 20.9161C44.959 20.3738 44.4995 20.3345 43.9266 20.7687C43.4399 21.1376 43.5061 21.9669 44.0495 22.3076C44.351 22.4965 44.5017 22.4541 44.7588 22.1081C45.0203 21.7556 45.1646 21.7172 45.4868 21.9145C46.0288 22.2463 46.0988 22.7601 45.6619 23.1972C45.1206 23.7383 44.3501 23.6329 43.579 22.9127C42.9983 22.3703 42.8888 22.1041 42.8888 21.2352C42.8888 20.6405 43.0837 19.8067 43.3483 19.2689C44.9528 16.0087 45.3003 13.6796 44.4355 11.9843C43.6292 10.4041 41.6959 9.73583 40.4383 10.6027ZM22.3481 11.3465C21.623 11.4594 20.9495 11.6778 20.8515 11.8323C20.6028 12.2241 20.6232 12.9807 20.8897 13.2472C21.039 13.3965 20.9539 13.7969 20.6323 14.4583C20.3681 15.0016 20.1317 15.7612 20.107 16.1463C20.0821 16.5312 19.8479 17.1465 19.5866 17.5138C18.9866 18.3563 18.9746 18.8907 19.5555 18.8907C20.0032 18.8907 20.011 18.9149 20.1166 20.6358C20.1737 21.5652 20.3832 21.7796 21.2352 21.7796C21.9252 21.7796 21.9999 21.8407 21.9999 22.4038C21.9999 22.7472 21.853 23.2221 21.6737 23.4594C21.2748 23.9867 21.233 25.0425 21.6059 25.1667C21.7783 25.2243 21.5875 25.5978 21.0877 26.1818C20.0721 27.3683 19.0895 29.1769 18.8372 30.3238C18.337 32.5983 18.3137 32.4463 19.1637 32.4463C20.871 32.4463 22.1246 31.8209 24.063 30.0018C26.4026 27.8065 26.6859 27.6678 28.8315 27.6718C30.2237 27.6743 30.6666 27.6029 30.6666 27.3758C30.6666 27.2112 30.3666 26.3927 29.9999 25.5574C29.6332 24.7221 29.3332 23.9241 29.3332 23.7841C29.3332 23.4381 28.6823 21.3141 28.4328 20.8454C28.2995 20.5949 28.3397 20.2563 28.5517 19.8454C29.1237 18.7363 29.6668 16.5838 29.6612 15.4463C29.6537 13.8421 28.5492 12.3516 26.8099 11.5983C25.9281 11.2163 23.9157 11.1027 22.3481 11.3465ZM11.8888 12.2241C11.7268 12.4863 11.937 12.8907 12.2352 12.8907C12.3503 12.8907 12.4443 12.6907 12.4443 12.4463C12.4443 11.9776 12.121 11.8483 11.8888 12.2241ZM37.043 12.3661C36.8357 12.5736 37.0861 12.8907 37.4575 12.8907C37.6337 12.8907 37.7777 12.7407 37.7777 12.5574C37.7777 12.2227 37.3086 12.1005 37.043 12.3661ZM26.2221 20.2441C24.2146 20.5063 21.9999 20.9527 21.9999 21.0952C21.9999 21.1683 22.1948 21.3498 22.4328 21.4985C22.7859 21.7192 23.2877 21.6649 25.155 21.2043C27.3548 20.6616 28.0288 20.3827 27.6303 20.1792C27.5281 20.1269 26.8943 20.1561 26.2221 20.2441ZM1.48701 24.1152C1.34834 24.9696 1.52545 26.4463 1.76679 26.4463C1.85101 26.4463 2.2559 26.1463 2.66657 25.7796C3.07723 25.4129 3.49523 25.1129 3.59545 25.1129C3.69568 25.1129 3.77768 25.0129 3.77768 24.8907C3.77768 24.7685 3.63123 24.6685 3.45212 24.6685C3.27301 24.6685 2.7859 24.3694 2.36968 24.0041L1.61279 23.3396L1.48701 24.1152ZM47.3455 24.1329C46.9243 24.4229 46.4743 24.7123 46.3455 24.7756C46.205 24.8445 46.2446 24.9496 46.4443 25.0376C46.6277 25.1183 47.0955 25.5012 47.4839 25.8883C48.1543 26.5563 48.1966 26.5687 48.3143 26.1303C48.4959 25.4541 48.4712 23.8221 48.2777 23.7056C48.1861 23.6505 47.7666 23.8427 47.3455 24.1329ZM6.75545 24.7574C6.67412 24.9694 6.71745 25.2527 6.8519 25.3872C7.02968 25.5649 7.13679 25.5265 7.24434 25.2463C7.32568 25.0343 7.28234 24.7509 7.1479 24.6165C6.97012 24.4387 6.86301 24.4772 6.75545 24.7574ZM42.2221 25.0018C42.2221 25.2307 42.3677 25.3396 42.611 25.2929C43.0795 25.2027 43.0499 24.8083 42.5672 24.7078C42.3659 24.6658 42.2221 24.7883 42.2221 25.0018ZM4.00723 25.6376C2.40568 26.1638 1.36212 28.8903 2.15857 30.4676C2.30701 30.7614 2.76368 31.8263 3.17368 32.8341L3.91901 34.666L4.4039 34.0636C5.0819 33.2212 5.01145 32.6352 4.10145 31.5461C3.66834 31.0276 3.21034 30.4096 3.08345 30.1725C2.65612 29.3743 3.0119 29.5696 3.78657 30.5587C4.20946 31.0987 4.68701 31.5443 4.8479 31.5489C5.49434 31.5676 5.9999 31.0878 5.9999 30.4556C5.9999 29.9101 5.87523 29.7738 5.16657 29.5456C4.25968 29.2536 3.77768 28.9423 3.77768 28.6487C3.77768 28.5456 4.12212 28.6645 4.54279 28.9127C5.15145 29.2718 5.40168 29.3143 5.76501 29.1196C6.24301 28.8638 6.36079 28.1205 6.01101 27.5676C5.83834 27.2947 5.72145 27.2901 5.25768 27.5383C4.6279 27.8754 4.22212 27.7129 4.22212 27.1236C4.22212 26.3689 5.69257 26.1829 6.30545 26.8601C7.28257 27.9398 7.18057 29.5016 5.95968 32.1563C4.85834 34.5505 4.66479 36.8969 5.46434 38.1585C6.1679 39.2687 6.69612 39.5574 8.02479 39.5574C9.57634 39.5574 10.5297 38.8914 10.889 37.5563C11.2159 36.3423 10.9117 35.2738 9.7019 33.3885C9.13234 32.5012 8.66657 31.6678 8.66657 31.5365C8.66657 31.1421 8.12923 31.4452 7.85234 31.9956C7.49568 32.7052 7.65212 32.9809 8.93234 33.9007C9.54345 34.3398 9.98545 34.7569 9.91457 34.8278C9.84368 34.8987 9.39279 34.6845 8.91234 34.3516C8.34057 33.9552 7.82146 33.7712 7.40834 33.8185C6.87323 33.8798 6.77768 33.9907 6.77768 34.5512C6.77768 35.1583 6.85679 35.2252 7.75323 35.3783C8.2899 35.4698 8.91545 35.7136 9.14345 35.9201C9.7139 36.4363 9.49545 36.5629 8.8099 36.1136C7.67568 35.3705 6.39879 36.2129 6.95834 37.3352C7.30679 38.0343 7.9999 38.2087 7.9999 37.5974C7.9999 37.064 8.61079 36.7901 9.02812 37.1363C10.0601 37.9927 8.16301 39.2207 7.10079 38.3836C5.66057 37.2487 5.61568 34.9458 6.98479 32.4463C7.15212 32.1407 7.49257 31.2692 7.74101 30.5092C8.16745 29.2067 8.17346 29.0585 7.8479 27.9145C7.27612 25.9043 5.82101 25.0416 4.00723 25.6376ZM43.1235 26.4338C41.6601 27.8972 41.6339 29.3367 43.0115 32.5787C43.5312 33.8021 43.8852 35.0238 43.939 35.7796C44.0148 36.8432 43.9383 37.1389 43.3512 38.0574C42.739 39.0147 42.5975 39.1129 41.827 39.1129C40.9059 39.1129 40.4443 38.8041 40.4443 38.1874C40.4443 37.7512 41.0701 37.3407 41.4999 37.4947C41.6528 37.5496 41.7777 37.7896 41.7777 38.0283C41.7777 38.3923 41.8488 38.4238 42.2195 38.2254C42.8772 37.8734 43.0559 36.8961 42.5326 36.5129C42.1383 36.2243 41.7403 36.2405 40.7428 36.5863C40.3792 36.7123 40.3832 36.6883 40.7777 36.3721C41.0221 36.1763 41.5221 36.0112 41.8888 36.0054C42.7157 35.9925 43.0043 35.8056 43.1619 35.1812C43.2775 34.7234 43.001 34.3212 42.2966 33.9232C42.1541 33.8425 41.5792 34.1267 41.0188 34.5545C39.721 35.5452 39.7006 35.2436 40.9841 34.0405C42.1726 32.9265 42.3803 32.3876 41.9021 31.6576C41.485 31.0212 41.1117 30.9478 41.1095 31.5018C41.1088 31.7158 40.6766 32.5598 40.1495 33.3774C38.7106 35.6094 38.5132 36.3743 38.9875 37.8823C39.4572 39.3754 40.2837 40.0618 41.6483 40.0923C42.7961 40.1178 43.5919 39.6205 44.3663 38.3938C44.8506 37.6269 44.9519 37.2087 44.9439 36.0105C44.9357 34.7607 44.7912 34.2505 43.9115 32.3629C42.7141 29.7941 42.547 28.2741 43.3495 27.2541C44.0208 26.4005 45.7777 26.4669 45.7777 27.3458C45.7777 27.9287 45.3739 28.0987 44.7641 27.7723C43.8472 27.2816 43.1339 28.2787 43.873 29.0176C44.3481 29.4929 45.0919 29.4025 45.9235 28.7683C46.3321 28.4565 46.6666 28.2412 46.6666 28.2898C46.6666 28.5889 45.7568 29.3058 44.9999 29.6032C44.2628 29.8927 44.111 30.0567 44.111 30.5641C44.111 31.9321 45.617 31.7872 46.4728 30.3369C46.7257 29.9083 47.0326 29.5574 47.1548 29.5574C47.417 29.5574 46.7952 30.5823 45.977 31.4989C45.0388 32.5498 44.9119 32.8894 45.1726 33.6516C45.3906 34.2896 45.7006 34.6572 46.0277 34.6652C46.1041 34.6669 46.2277 34.3627 46.3023 33.9892C46.3772 33.6154 46.7897 32.5107 47.219 31.5338C47.7077 30.4229 47.9997 29.4085 47.999 28.8245C47.9975 27.0769 46.5272 25.5598 44.8332 25.5583C44.1588 25.5576 43.8328 25.7245 43.1235 26.4338ZM11.7083 37.2565C11.4183 37.5463 11.5568 37.7796 12.0183 37.7796C12.277 37.7796 12.4426 37.6632 12.3935 37.5158C12.2852 37.1909 11.9141 37.0505 11.7083 37.2565ZM36.9635 37.4612C36.7781 37.9438 37.2483 38.3978 37.585 38.0612C37.8695 37.7767 37.6932 37.1129 37.3332 37.1129C37.2032 37.1129 37.037 37.2696 36.9635 37.4612ZM11.4348 39.0825C9.25546 40.4114 9.56679 43.4603 11.9935 44.5545C13.4343 45.2043 15.4528 44.9389 17.8292 43.7878C20.0741 42.7005 21.643 42.5385 22.6526 43.2898C23.8137 44.1543 23.8072 45.6685 22.6423 45.6685C22.2606 45.6685 22.091 45.5278 22.0399 45.1685C21.9923 44.8323 22.0832 44.6685 22.3177 44.6685C22.7815 44.6685 22.7588 44.3765 22.2601 43.9252C21.7499 43.4634 21.2432 43.4569 20.7935 43.9065C20.2686 44.4316 20.3706 45.0734 21.0939 45.7967C21.4512 46.154 21.6186 46.4463 21.4659 46.4463C21.0106 46.4463 20.2392 45.4758 20.0861 44.7105C19.9075 43.8176 19.0923 43.5265 18.4355 44.1209C18.1959 44.3378 17.9999 44.6378 17.9999 44.7876C17.9999 45.1596 19.3172 46.4356 19.9999 46.7252C20.4183 46.9025 20.467 46.982 20.197 47.0472C19.7492 47.1554 18.283 46.3085 17.9988 45.7776C17.6337 45.0954 16.5919 44.8725 15.755 45.298C14.7655 45.8012 14.7223 46.1389 15.6295 46.2861C16.0461 46.3536 16.8688 46.6285 17.4575 46.8967C20.1972 48.1447 21.5217 48.2989 22.8912 47.5294C24.1532 46.82 24.8512 45.0961 24.3561 43.9112C23.9301 42.8918 23.4555 42.4998 22.193 42.1249C20.9999 41.7705 19.5181 41.9269 18.111 42.5556C16.5006 43.2752 14.5895 43.7796 13.4743 43.7796C12.3719 43.7796 12.209 43.7121 11.5786 42.994C10.8168 42.1265 10.6732 41.1381 11.2286 40.5827C11.4155 40.3958 11.7155 40.2994 11.8952 40.3683C12.2703 40.5123 12.3357 41.5772 11.9906 41.9223C11.6088 42.3041 12.3988 42.778 13.2777 42.6947C13.6199 42.6625 13.6441 41.4716 13.3152 40.8572C13.0339 40.3314 13.2583 39.9718 13.5677 40.4527C13.6832 40.6325 13.885 41.1796 14.0159 41.6685C14.3775 43.0181 15.3039 43.5538 15.7699 42.6829C16.0577 42.1452 15.7901 41.3889 15.0166 40.5545C14.3583 39.8441 14.3199 39.7458 14.767 39.9174C14.9446 39.9856 15.4512 40.4823 15.893 41.0216C16.7881 42.1141 17.6457 42.3172 18.3015 41.5923C18.6537 41.2034 18.6248 41.1618 17.7248 40.7614C17.2039 40.5296 16.1292 39.9638 15.3368 39.5043C13.6892 38.5487 12.5177 38.4221 11.4348 39.0825ZM35.4443 38.9334C35.0777 39.0707 34.1288 39.6174 33.3357 40.1481C32.5426 40.6787 31.7175 41.1129 31.5023 41.1129C30.9777 41.1129 31.0037 41.7065 31.5408 41.994C32.3168 42.4094 32.8377 42.2414 33.5452 41.348C34.3072 40.3858 35.7117 39.4105 35.9561 39.6736C36.0412 39.7654 35.961 39.8914 35.7777 39.9536C35.2666 40.1269 33.7777 41.8078 33.7777 42.2116C33.7777 42.8312 34.5877 43.354 35.1919 43.1245C35.6023 42.9683 35.7559 42.6987 35.871 41.9323C35.9528 41.3861 36.215 40.7649 36.4555 40.5474C37.0655 39.9954 37.2086 40.2625 36.6697 40.9474C36.0275 41.7641 36.0772 42.6236 36.7772 42.7994C37.8728 43.0743 38.2941 42.5223 37.7559 41.5169C37.5655 41.1609 37.5883 40.9849 37.8601 40.7129C38.1761 40.3969 38.2499 40.4025 38.6597 40.7734C39.2775 41.3325 39.2535 42.4614 38.611 43.0465C37.2077 44.3245 35.7257 44.3409 32.6123 43.1129C30.7057 42.3607 30.1075 42.2241 28.7248 42.2241C27.2766 42.2241 27.0275 42.2874 26.5332 42.7818C25.6308 43.684 25.2797 44.7554 25.5532 45.7716C25.8021 46.6956 26.8588 47.7609 27.5726 47.8074C27.8077 47.8227 28.125 47.8514 28.2777 47.8709C28.8572 47.9458 30.4699 47.5554 31.363 47.1238C31.8739 46.8769 32.8263 46.5509 33.4792 46.3989C34.1323 46.2472 34.6666 46.0529 34.6666 45.9674C34.6666 45.64 33.4706 44.8907 32.9477 44.8907C32.6223 44.8907 32.097 45.1936 31.6541 45.6365C30.9341 46.3565 29.9199 47.1129 29.6743 47.1129C29.3666 47.1129 29.6028 46.7078 29.9659 46.6129C30.1917 46.5541 30.6399 46.1603 30.9617 45.7383C31.4839 45.0538 31.5192 44.8972 31.2899 44.2894C31.0528 43.6614 30.9832 43.6252 30.4039 43.8269C29.9957 43.9694 29.7275 44.2529 29.6392 44.6352C29.423 45.5732 28.601 46.6654 28.111 46.6658C27.7161 46.6663 27.7346 46.6107 28.2772 46.1674C29.1046 45.4916 29.2937 44.4583 28.6899 43.9118C28.2517 43.5154 28.2095 43.5145 27.6337 43.8918C27.0906 44.2476 27.069 44.3105 27.4059 44.5567C28.1403 45.0938 27.745 45.9403 26.8868 45.6678C26.5599 45.564 26.4443 45.3312 26.4443 44.7761C26.4443 44.1849 26.603 43.9034 27.1875 43.4576C28.3006 42.6087 29.3466 42.7023 32.291 43.9143C34.3177 44.7483 35.0323 44.9385 36.1541 44.9421C38.3546 44.9489 39.7246 43.8721 39.9328 41.9716C40.1166 40.2963 38.963 39.0518 36.9906 38.7972C36.5068 38.7347 35.811 38.7961 35.4443 38.9334ZM8.38879 40.1652C7.80834 40.2109 7.33323 40.3583 7.33323 40.4925C7.33323 40.6269 7.75834 41.1298 8.27768 41.6103L9.22212 42.4838L9.33901 41.5207C9.40323 40.9909 9.53412 40.4325 9.6299 40.2796C9.72568 40.1269 9.72301 40.0198 9.62412 40.0418C9.52523 40.0638 8.96923 40.1194 8.38879 40.1652ZM40.4443 41.4618C40.4443 42.0032 40.5441 42.4463 40.6659 42.4463C40.9166 42.4463 42.6675 40.9149 42.6648 40.6983C42.6639 40.6207 42.1639 40.5394 41.5537 40.5174L40.4443 40.4772V41.4618ZM24.5986 42.5883C24.3912 42.7958 24.6417 43.1129 25.013 43.1129C25.1892 43.1129 25.3332 42.9629 25.3332 42.7796C25.3332 42.4449 24.8641 42.3227 24.5986 42.5883ZM24.7383 46.5801C24.6512 46.8067 24.2992 47.2285 23.9561 47.5172C23.3252 48.048 23.3146 48.5863 23.9395 48.3465C24.1259 48.2749 24.4201 48.3338 24.593 48.4774C24.8312 48.6752 24.9701 48.6761 25.1648 48.4814C25.3063 48.3398 25.6021 48.224 25.8221 48.224C26.3512 48.224 26.335 48.1541 25.5592 47.0829C24.9866 46.2923 24.8748 46.2238 24.7383 46.5801Z" fill="#FFB800"/>
<path d="M16.9057 38.06C16.6097 38.06 16.3643 37.9973 16.1697 37.872C15.975 37.7467 15.839 37.5773 15.7617 37.364L16.3737 37.008C16.4777 37.256 16.6617 37.38 16.9257 37.38C17.1443 37.38 17.2537 37.3173 17.2537 37.192C17.2537 37.1093 17.191 37.0427 17.0657 36.992C17.0123 36.9707 16.895 36.9347 16.7137 36.884C16.4577 36.8093 16.255 36.7053 16.1057 36.572C15.9563 36.436 15.8817 36.248 15.8817 36.008C15.8817 35.7493 15.9737 35.54 16.1577 35.38C16.3443 35.22 16.5763 35.14 16.8537 35.14C17.0883 35.14 17.2963 35.1947 17.4777 35.304C17.659 35.4133 17.7977 35.572 17.8937 35.78L17.2937 36.132C17.2057 35.924 17.0603 35.82 16.8577 35.82C16.7723 35.82 16.707 35.8373 16.6617 35.872C16.619 35.9067 16.5977 35.9507 16.5977 36.004C16.5977 36.0653 16.6297 36.1173 16.6937 36.16C16.7603 36.2027 16.8883 36.252 17.0777 36.308C17.2137 36.348 17.323 36.3853 17.4057 36.42C17.4883 36.4547 17.579 36.5053 17.6777 36.572C17.7763 36.636 17.8497 36.72 17.8977 36.824C17.9457 36.9253 17.9697 37.0453 17.9697 37.184C17.9697 37.4587 17.8723 37.6733 17.6777 37.828C17.483 37.9827 17.2257 38.06 16.9057 38.06ZM20.1255 37.792C19.9202 37.9707 19.6548 38.06 19.3295 38.06C19.0042 38.06 18.7375 37.9707 18.5295 37.792C18.3242 37.6133 18.2215 37.376 18.2215 37.08V35.2H18.9375V37.012C18.9375 37.2467 19.0682 37.364 19.3295 37.364C19.5908 37.364 19.7215 37.2467 19.7215 37.012V35.2H20.4375V37.08C20.4375 37.376 20.3335 37.6133 20.1255 37.792ZM22.3551 35.2H23.0671V38H22.3551V36.924H21.5671V38H20.8511V35.2H21.5671V36.236H22.3551V35.2ZM25.2192 38L25.0992 37.596H24.1672L24.0472 38H23.2712L24.1952 35.2H25.0672L25.9912 38H25.2192ZM24.3512 36.98H24.9152L24.6312 36.028L24.3512 36.98ZM27.7388 35.2H28.4508V38H27.8988L26.9108 36.592V38H26.1948V35.2H26.7508L27.7388 36.608V35.2ZM30.034 35.2C30.4207 35.2 30.7434 35.3347 31.002 35.604C31.2634 35.8707 31.394 36.2027 31.394 36.6C31.394 36.9973 31.2634 37.3307 31.002 37.6C30.7434 37.8667 30.4207 38 30.034 38H28.894V35.2H30.034ZM30.034 37.308C30.2287 37.308 30.3874 37.244 30.51 37.116C30.6327 36.9853 30.694 36.8133 30.694 36.6C30.694 36.3867 30.6327 36.216 30.51 36.088C30.3874 35.9573 30.2287 35.892 30.034 35.892H29.63V37.308H30.034ZM33.3325 38L33.2125 37.596H32.2805L32.1605 38H31.3845L32.3085 35.2H33.1805L34.1045 38H33.3325ZM32.4645 36.98H33.0285L32.7445 36.028L32.4645 36.98Z" fill="#FFB800"/>
</svg>
